<?xml version="1.0" encoding="UTF-8"?>
<svg version="1.1" xmlns="http://www.w3.org/2000/svg" width="654" height="683">
<path d="M0 0 C215.82 0 431.64 0 654 0 C654 225.39 654 450.78 654 683 C438.18 683 222.36 683 0 683 C0 457.61 0 232.22 0 0 Z " fill="#DCE4E6" transform="translate(0,0)"/>
<path d="M0 0 C4.4304932 2.2152466 7.28463596 4.8787902 10 9 C10.38091657 11.68853499 10.53195008 13.96112988 10.49219131 16.64305592 C10.49680669 17.4085933 10.50142207 18.17413068 10.50617731 18.96286616 C10.51679524 21.53726317 10.49879668 24.11066664 10.48101807 26.68501282 C10.48276186 28.54549064 10.48626323 30.40596752 10.49137473 32.26643914 C10.5003363 37.38597593 10.48429477 42.5051792 10.46426249 47.62467349 C10.44701892 53.14270125 10.45283199 58.66070959 10.45587158 64.17875671 C10.4579709 73.74148847 10.44540084 83.30411123 10.42292023 92.86681557 C10.39043803 106.69293228 10.37999708 120.51899618 10.37496826 134.34514692 C10.36620968 156.77610839 10.33961311 179.20701252 10.30175781 201.63793945 C10.26502325 223.42992857 10.23668725 245.22190214 10.21972656 267.01391602 C10.21920046 267.68558355 10.21867435 268.35725107 10.21813231 269.04927217 C10.21285825 275.79440392 10.20775499 282.53953579 10.20277687 289.28466777 C10.16100908 345.85648601 10.09042081 402.42823993 10 459 C11.14072501 458.99886084 12.28145003 458.99772168 13.45674247 458.996548 C63.71585012 458.94655481 113.97495951 458.90026958 164.23408508 458.87297058 C164.99465307 458.87255641 165.75522106 458.87214224 166.53883656 458.87171552 C183.06692383 458.86273737 199.59501136 458.85442675 216.12309931 458.84680401 C224.22814374 458.84306191 232.3331881 458.83917226 240.43823242 458.83520508 C241.24479368 458.8348128 242.05135494 458.83442052 242.88235745 458.83401636 C269.03839604 458.82122599 295.19441521 458.79868734 321.35044204 458.77110834 C348.22293315 458.74282527 375.09541352 458.72434709 401.96791926 458.71825503 C405.76105623 458.71739053 409.55419317 458.71641362 413.34733009 458.71536827 C414.09389424 458.715166 414.84045838 458.71496373 415.60964568 458.71475533 C427.6407145 458.71120635 439.67175015 458.69728187 451.70280543 458.6795039 C463.78993726 458.66186352 475.87703611 458.6550907 487.96418037 458.65949587 C494.51656829 458.66158066 501.06887761 458.65839493 507.62125015 458.64238358 C513.61385007 458.62784641 519.60628624 458.62700728 525.5988935 458.63730332 C527.77259182 458.63857692 529.94630012 458.63471921 532.11997863 458.62535045 C535.06398239 458.61339421 538.00738709 458.61974934 540.95138073 458.63085651 C541.8045922 458.62297547 542.65780367 458.61509443 543.53687003 458.60697457 C549.97072527 458.66221115 553.14283357 460.18410394 557.8125 464.75 C560.47337536 468.70330053 560.80655884 470.32195871 560 475 C557.64205946 480.21634193 555.14447422 483.36307409 550 486 C547.36083984 486.35644531 547.36083984 486.35644531 544.4609375 486.328125 C543.34283691 486.32361328 542.22473633 486.31910156 541.07275391 486.31445312 C539.85249512 486.29318359 538.63223633 486.27191406 537.375 486.25 C536.09931152 486.23904297 534.82362305 486.22808594 533.50927734 486.21679688 C529.00558998 486.17309336 524.50298559 486.08933631 520 486 C519.09403076 485.98219482 518.18806152 485.96438965 517.25463867 485.94604492 C503.83522008 485.67813537 490.41737933 485.35482731 477 485 C477.04713135 486.53539429 477.04713135 486.53539429 477.09521484 488.10180664 C477.20436674 491.92391089 477.27289366 495.74587944 477.32958984 499.5690918 C477.35963934 501.21906755 477.40049264 502.8688852 477.45263672 504.51831055 C477.92945772 519.99629411 477.92945772 519.99629411 474.265625 524.578125 C471.76213209 526.76766437 469.78458196 527.89833987 466.375 527.6875 C463.31466422 527.43032893 462.14073443 527.09743153 459.5625 525.3125 C451.49907536 513.37863154 456 501.71100385 456 486 C431.25 486 406.5 486 381 486 C381 496.89 381 507.78 381 519 C374.61111111 526.66666667 374.61111111 526.66666667 369.0625 527.375 C365.09287274 526.88892319 363.71345475 525.9334646 361 523 C358 515 358 515 358 486 C333.91 486 309.82 486 285 486 C284.67 496.56 284.34 507.12 284 518 C280.0625 524.5625 280.0625 524.5625 276 527 C273.19139406 527.6152727 270.8008936 527.67334614 268 527 C265.30894802 524.82425584 263.54467072 523.08934144 262 520 C262 508.78 262 497.56 262 486 C237.91 486 213.82 486 189 486 C189 496.23 189 506.46 189 517 C184.41968912 525.01554404 184.41968912 525.01554404 181 526 C177.58413814 526.56931031 174.40638375 526.6631396 171 526 C161.08734219 515.12025362 166 500.35791311 166 486 C141.91 486 117.82 486 93 486 C93 497.22 93 508.44 93 520 C87 527 87 527 84.62109375 527.859375 C80.49561179 527.6527319 78.50161435 527.36286995 75.0625 524.875 C66.91815237 513.522273 71 499.68461934 71 486 C50.54 486 30.08 486 9 486 C8.67 487.65 8.34 489.3 8 491 C4.41668375 491.02907084 0.83339792 491.04682263 -2.75 491.0625 C-3.76578125 491.07087891 -4.7815625 491.07925781 -5.828125 491.08789062 C-6.8078125 491.09111328 -7.7875 491.09433594 -8.796875 491.09765625 C-10.14797363 491.10551147 -10.14797363 491.10551147 -11.52636719 491.11352539 C-13.83389804 491.00762312 -15.79134405 490.65132813 -18 490 C-18 488.68 -18 487.36 -18 486 C-19.010625 486.165 -20.02125 486.33 -21.0625 486.5 C-26.18345057 485.84972056 -27.47245773 483.91394777 -30.6171875 480.04296875 C-32.89101072 476.68361976 -33.58402855 473.25006951 -33.5390625 469.203125 C-32.43028249 464.6715893 -28.81911222 461.45820867 -25 459 C-22.67394314 458.61919157 -20.34020407 458.28107023 -18 458 C-18.0018986 457.05009198 -18.0037972 456.10018395 -18.00575334 455.12149084 C-18.11777101 398.85581037 -18.20340968 342.59013988 -18.25532665 286.32437035 C-18.26156341 279.57252925 -18.26804617 272.8206884 -18.2746582 266.06884766 C-18.275312 265.396953 -18.27596579 264.72505834 -18.2766394 264.03280324 C-18.29795183 242.24889299 -18.33551258 220.46504753 -18.3814861 198.68117654 C-18.42997447 175.66391338 -18.45997677 152.64667688 -18.47044247 129.6293608 C-18.47731226 115.83767627 -18.4990307 102.04617771 -18.53958233 88.25455041 C-18.56595738 78.80454689 -18.57401287 69.35463989 -18.56750689 59.90460221 C-18.56429586 54.4476632 -18.56931066 48.99104976 -18.59602737 43.53416824 C-18.62029476 38.54123965 -18.6216299 33.54885669 -18.60449447 28.55590339 C-18.60237556 26.74691475 -18.60877322 24.93789256 -18.62441591 23.12897031 C-18.64441574 20.67401006 -18.63371206 18.22103212 -18.61523914 15.76610374 C-18.62837421 15.05991038 -18.64150928 14.35371701 -18.65504238 13.62612385 C-18.55969769 8.03837714 -16.80769186 5.79413874 -13 2 C-8.7405332 -0.83964453 -5.00024162 -0.63185581 0 0 Z " fill="#1E3445" transform="translate(47,47)"/>
<path d="M0 0 C3.99771558 3.18846141 7.01455065 6.94645867 9.75 11.25 C10.31267578 12.09304687 10.31267578 12.09304687 10.88671875 12.953125 C13.40991239 19.66641848 12.77813549 29.46741779 10.91015625 36.33984375 C9.72162281 38.87298069 8.41258291 41.00086107 6.75 43.25 C5.87794922 44.44882813 5.87794922 44.44882813 4.98828125 45.671875 C-0.29637825 52.23214196 -6.33885494 55.61295165 -14.25 58.25 C-16.88772577 58.37248619 -19.48745795 58.43512384 -22.125 58.4375 C-22.83269531 58.44974609 -23.54039062 58.46199219 -24.26953125 58.47460938 C-28.44189706 58.48626403 -31.45888984 57.92099455 -35.25 56.25 C-39.2420859 55.81964362 -39.2420859 55.81964362 -41.546875 58.19140625 C-42.35640625 59.05636719 -43.1659375 59.92132813 -44 60.8125 C-46.83849495 63.820389 -49.66807266 66.64581823 -52.81640625 69.328125 C-58.66278792 74.37814882 -64.01332041 79.94400182 -69.4375 85.4375 C-71.55302177 87.57978843 -73.67196304 89.7186112 -75.79296875 91.85546875 C-76.26703659 92.33783493 -76.74110443 92.82020111 -77.22953796 93.31718445 C-80.08328241 96.19167857 -83.06641509 98.75038571 -86.25 101.25 C-87.74701545 102.89315155 -87.74701545 102.89315155 -88.9375 104.5 C-90.0821875 105.86125 -90.0821875 105.86125 -91.25 107.25 C-91.91 107.25 -92.57 107.25 -93.25 107.25 C-93.5903125 108.11625 -93.5903125 108.11625 -93.9375 109 C-95.59761639 111.84591381 -97.64187957 113.24841921 -100.25 115.25 C-101.93645751 116.90038355 -103.59886736 118.56483453 -105.25 120.25 C-121.05457506 136.37223248 -121.05457506 136.37223248 -129.375 142.87890625 C-133.89120582 146.60354882 -138.08937082 150.66770575 -142.30102539 154.73095703 C-143.22129517 155.60856689 -143.22129517 155.60856689 -144.16015625 156.50390625 C-144.70808838 157.03314697 -145.25602051 157.5623877 -145.82055664 158.10766602 C-147.25 159.25 -147.25 159.25 -149.25 159.25 C-149.49363281 159.83136719 -149.73726563 160.41273438 -149.98828125 161.01171875 C-151.47705347 163.65279145 -153.12643262 165.09983474 -155.4375 167.0625 C-158.78726458 169.97767413 -161.97579494 172.95064287 -165.0703125 176.13671875 C-165.7300708 176.81436279 -166.3898291 177.49200684 -167.06958008 178.19018555 C-168.38234117 179.54701089 -169.68711649 180.91161551 -170.9831543 182.28442383 C-176.64240946 188.10957819 -176.64240946 188.10957819 -181.25 188.25 C-181.20359375 188.95125 -181.1571875 189.6525 -181.109375 190.375 C-180.85121704 197.16086638 -181.54094321 201.56977781 -185.25 207.25 C-185.63929688 207.92933594 -186.02859375 208.60867188 -186.4296875 209.30859375 C-191.512515 217.26366993 -200.43614089 220.73011078 -209.25 223.25 C-219.22931415 224.27454292 -227.38138507 222.61185888 -235.25 216.25 C-240.73555237 210.29358476 -245.1615764 204.11329788 -245.3125 195.8125 C-246.86989483 189.89439966 -251.60623945 186.98013059 -256.25 183.25 C-263.07860311 177.76360439 -269.41542158 172.16233701 -275.54296875 165.89453125 C-278.86790925 162.64635705 -282.40985758 159.80750645 -286.09375 156.98046875 C-287.96440139 155.47920323 -289.52722553 153.96551122 -291.125 152.1875 C-293.00203812 150.05530211 -293.00203812 150.05530211 -295.125 150.1875 C-297.46657924 151.30272844 -297.46657924 151.30272844 -300.29296875 153.28515625 C-304.70484551 155.806147 -308.69945459 155.84508585 -313.6875 155.75 C-314.89889648 155.77320313 -314.89889648 155.77320313 -316.13476562 155.796875 C-320.57221945 155.76826933 -323.63359614 155.26830004 -327.53515625 153.09375 C-330.50712897 151.39094191 -330.50712897 151.39094191 -333.9140625 151.70703125 C-336.7462352 153.57778078 -339.14543016 155.61420557 -341.625 157.9375 C-342.1288623 158.40647705 -342.63272461 158.8754541 -343.15185547 159.35864258 C-348.35903453 164.25150024 -353.37560929 169.34426242 -358.34912109 174.47338867 C-358.95836426 175.0944751 -359.56760742 175.71556152 -360.1953125 176.35546875 C-361.00766357 177.19307739 -361.00766357 177.19307739 -361.83642578 178.04760742 C-363.25 179.25 -363.25 179.25 -365.25 179.25 C-365.476875 179.8275 -365.70375 180.405 -365.9375 181 C-367.59848222 183.84739809 -369.56524561 185.37067193 -372.25 187.25 C-372.91 187.25 -373.57 187.25 -374.25 187.25 C-374.14558594 188.23226562 -374.14558594 188.23226562 -374.0390625 189.234375 C-373.54309459 197.59497689 -375.89628002 203.19919595 -380.25 210.25 C-380.67152344 210.94351563 -381.09304688 211.63703125 -381.52734375 212.3515625 C-385.81885968 218.2735936 -392.39852291 221.20683033 -399.25 223.25 C-407.9981313 224.64140813 -417.71102742 224.26247102 -425.25 219.25 C-432.76174434 212.82444866 -436.71344359 205.01670468 -438.1875 195.3125 C-438.71379043 186.93132487 -436.26882792 179.46751976 -430.9140625 173.03125 C-425.00189762 166.70273549 -419.56156395 162.72645258 -410.72265625 161.93359375 C-401.1382439 161.63677379 -393.62674891 162.83543573 -386.25 169.25 C-385.0125 167.7340625 -385.0125 167.7340625 -383.75 166.1875 C-378.84205905 160.47685843 -373.08607655 155.89546469 -367.1875 151.25 C-360.66144727 146.06108957 -355.15312929 140.26531535 -349.73046875 133.94921875 C-348.61828828 132.67270555 -347.44716986 131.44716986 -346.25 130.25 C-345.93546278 127.6246881 -345.93546278 127.6246881 -345.875 124.625 C-345.48740457 118.94706699 -344.3382744 114.99947616 -341.25 110.25 C-340.71375 109.404375 -340.1775 108.55875 -339.625 107.6875 C-333.62447543 101.52906688 -326.67099254 96.80832977 -317.98828125 95.9140625 C-306.97001218 95.78842659 -299.07804694 97.18010641 -290.875 104.875 C-285.27710212 110.94458085 -281.14158677 116.81407818 -281.0625 125.25 C-280.71800142 131.19958357 -277.37716567 133.94300423 -273.1328125 137.8125 C-269.44860813 140.92759963 -265.74852453 144.01396205 -261.98046875 147.02734375 C-258.40469987 149.93809124 -255.00336399 153.01899241 -251.59375 156.12109375 C-245.91428851 161.27993794 -240.08365391 166.26708729 -234.25 171.25 C-233.74210938 170.76789063 -233.23421875 170.28578125 -232.7109375 169.7890625 C-232.02257812 169.15742188 -231.33421875 168.52578125 -230.625 167.875 C-229.95210937 167.24851563 -229.27921875 166.62203125 -228.5859375 165.9765625 C-222.22961877 161.27841387 -214.81094245 161.64919161 -207.25 162.25 C-202.10242736 163.37654545 -198.15358035 165.71238031 -194.25 169.25 C-190.53731906 167.70872649 -188.26884302 165.44156766 -185.5 162.5625 C-182.62010191 159.57576698 -179.6949934 156.74101696 -176.546875 154.04296875 C-171.52680558 149.69795102 -166.9068845 144.97744336 -162.25 140.25 C-157.01585768 134.9365525 -151.78107021 129.71966261 -146.1171875 124.86328125 C-143.08384441 122.24242205 -140.17374556 119.49173536 -137.25 116.75 C-132.94898335 112.73617365 -128.62567102 108.76660489 -124.171875 104.921875 C-120.96359923 102.13093591 -117.82124968 99.26680379 -114.66796875 96.4140625 C-112.65859416 94.61568848 -110.62084987 92.8663372 -108.5625 91.125 C-103.71575142 86.91987801 -99.27634602 82.29805802 -94.76147461 77.74438477 C-89.59825866 72.55389488 -84.30717963 67.66730483 -78.5625 63.125 C-76.21427961 61.2951368 -76.21427961 61.2951368 -74.1875 59.13671875 C-71.85802006 56.76892358 -69.37183025 54.65750181 -66.82421875 52.52734375 C-56.82845515 44.36996892 -56.82845515 44.36996892 -52.1796875 32.90234375 C-52.13102409 29.46921896 -52.46455891 26.17316724 -52.91015625 22.7734375 C-53.62673647 17.00272552 -51.87712131 12.6968609 -48.70703125 7.9296875 C-35.08867798 -7.0149187 -17.62234416 -12.23866786 0 0 Z " fill="#1C3648" transform="translate(534.25,71.75)"/>
<path d="M0 0 C1.2366465 -0.01418472 1.2366465 -0.01418472 2.49827576 -0.02865601 C3.38064407 -0.02258331 4.26301239 -0.01651062 5.17211914 -0.01025391 C6.08683487 -0.01312408 7.0015506 -0.01599426 7.94398499 -0.01895142 C9.87639994 -0.02099071 11.8088356 -0.01547027 13.74121094 -0.00292969 C16.69326165 0.01310746 19.64393944 -0.00277341 22.59594727 -0.02197266 C24.47550757 -0.01998984 26.35506702 -0.01614537 28.23461914 -0.01025391 C29.55513527 -0.01936295 29.55513527 -0.01936295 30.90232849 -0.02865601 C35.68772829 0.02602496 38.88452947 0.28833723 42.76977539 3.38818359 C46.41551302 7.43900318 47.89257812 10.36830773 47.90120316 15.79549694 C47.9050443 16.70221934 47.90888545 17.60894175 47.91284299 18.54314059 C47.91197651 19.54059166 47.91111002 20.53804274 47.91021729 21.5657196 C47.91318841 22.62436197 47.91615953 23.68300433 47.91922069 24.77372676 C47.92792689 28.33882379 47.92941756 31.90388731 47.9309082 35.46899414 C47.93553505 38.01800102 47.94055953 40.5670072 47.94595337 43.11601257 C47.95909298 50.0541676 47.96556207 56.99231155 47.96996403 63.9304769 C47.97272642 68.26319549 47.97696382 72.59591184 47.9814682 76.92862892 C47.99366208 88.92556843 48.00396061 100.92250614 48.00734329 112.91945171 C48.00767264 114.07139331 48.00767264 114.07139331 48.00800864 115.24660646 C48.00833606 116.40130421 48.00833606 116.40130421 48.00867009 117.57932919 C48.00911356 119.13923053 48.00956012 120.69913187 48.01000977 122.2590332 C48.0102312 123.03279806 48.01045263 123.80656291 48.01068076 124.60377518 C48.01462734 137.13680162 48.03207652 149.66976987 48.05536929 162.20277383 C48.07909279 175.07149097 48.09154563 187.94017893 48.09271121 200.8089183 C48.0936275 208.03367742 48.09936806 215.25836075 48.11753082 222.48309898 C48.13455789 229.28005655 48.13617694 236.07684583 48.12739182 242.87382698 C48.12662032 245.36832438 48.13097894 247.86282945 48.14085007 250.35730743 C48.15353864 253.76361993 48.14770902 257.1694205 48.13726807 260.57572937 C48.14532447 261.56202684 48.15338088 262.5483243 48.16168141 263.56450957 C48.10435491 271.56571453 46.59311607 278.01254324 41.08227539 284.13818359 C40.4596582 284.85490234 39.83704102 285.57162109 39.19555664 286.31005859 C32.05462044 292.42757559 25.4886768 293.0191029 16.26977539 292.88818359 C15.18051758 292.90365234 14.09125977 292.91912109 12.96899414 292.93505859 C4.0056867 292.89170523 -2.64537651 290.79506282 -9.23022461 284.38818359 C-12.78513094 279.42339939 -15.34591224 275.17925187 -15.37282562 268.94963551 C-15.37913356 268.03594631 -15.3854415 267.12225711 -15.39194059 266.18088037 C-15.39380259 265.1756474 -15.39566459 264.17041443 -15.39758301 263.13471985 C-15.40627309 261.53450565 -15.40627309 261.53450565 -15.41513872 259.90196389 C-15.43324885 256.30924012 -15.44408467 252.71653211 -15.45483398 249.1237793 C-15.46600583 246.5550675 -15.47751904 243.98635717 -15.48934937 241.41764832 C-15.52660006 232.96644525 -15.55119513 224.51521752 -15.57397461 216.06396484 C-15.57594951 215.34532303 -15.57792441 214.62668122 -15.57995915 213.88626239 C-15.61912364 199.61572771 -15.65282338 185.34518427 -15.6750412 171.07461262 C-15.68001047 167.93735555 -15.6850548 164.80009861 -15.69018555 161.6628418 C-15.69145622 160.88309571 -15.69272689 160.10334963 -15.69403607 159.29997488 C-15.71539423 146.66984704 -15.76438827 134.03997945 -15.82442969 121.40998254 C-15.88557015 108.44182932 -15.92023175 95.47381033 -15.92951441 82.5055148 C-15.93542358 75.22470181 -15.95315908 67.94432972 -16.00090027 60.66366005 C-16.04577396 53.81401303 -16.05507481 46.96511836 -16.04027176 40.11534309 C-16.04060098 37.60146728 -16.05292148 35.0875601 -16.07812119 32.57381058 C-16.11072246 29.14049585 -16.10009863 25.70990775 -16.07873535 22.27656555 C-16.10829701 20.78544651 -16.10829701 20.78544651 -16.13845587 19.26420385 C-16.038344 12.8895839 -14.58749574 9.61718814 -10.12226915 5.04835767 C-4.3853438 0.01449377 -4.3853438 0.01449377 0 0 Z " fill="#3D5E77" transform="translate(497.230224609375,174.61181640625)"/>
<path d="M0 0 C0.33 0 0.66 0 1 0 C1.09127675 31.33014397 1.16205228 62.66025273 1.20426132 93.99049813 C1.20926406 97.69044298 1.21444136 101.39038757 1.21972656 105.09033203 C1.2207758 105.8269154 1.22182505 106.56349876 1.22290608 107.32240283 C1.24030496 119.24454738 1.27183978 131.16661467 1.30861118 143.08871341 C1.34603504 155.32452149 1.3682389 167.56028915 1.37635398 179.79615211 C1.38183878 187.34461067 1.39915352 194.89285084 1.43166587 202.44124216 C1.45533597 208.23218904 1.45781619 214.02299641 1.45243073 219.81398201 C1.45353113 222.18754482 1.46148717 224.56111591 1.4768219 226.93462944 C1.49674264 230.17701923 1.4919308 233.41847702 1.48101807 236.66088867 C1.49266943 237.59865017 1.5043208 238.53641167 1.51632524 239.50259018 C1.45054189 246.74095361 -0.43406141 251.84269275 -5 257.4609375 C-5.99 258.40839844 -5.99 258.40839844 -7 259.375 C-7.66 260.02210938 -8.32 260.66921875 -9 261.3359375 C-12.04051459 263.86574065 -14.01113288 265 -18 265 C-18 265.66 -18 266.32 -18 267 C-42.20551417 268.04099406 -42.20551417 268.04099406 -51 262 C-51.91072266 261.42378906 -51.91072266 261.42378906 -52.83984375 260.8359375 C-57.92163943 257.18300858 -60.08518487 251.74444538 -62 246 C-62.11233613 243.53293127 -62.16960617 241.09286353 -62.18081665 238.62506104 C-62.18802117 237.86789598 -62.19522568 237.11073093 -62.20264852 236.33062148 C-62.22542351 233.78585899 -62.24095667 231.24110619 -62.25634766 228.69628906 C-62.27079513 226.87471274 -62.28555276 225.05313886 -62.30059814 223.23156738 C-62.43082247 206.60878021 -62.49672313 189.9853221 -62.54844093 173.3621254 C-62.58737203 161.07281292 -62.65577054 148.78441529 -62.76298869 136.49550462 C-62.83582735 127.85593052 -62.87427324 119.2166068 -62.88746679 110.57673812 C-62.89633465 105.41562148 -62.92060963 100.25563632 -62.98213577 95.09485626 C-63.0393747 90.23860882 -63.05405753 85.38407638 -63.03626251 80.52754211 C-63.03714099 78.74691355 -63.05340192 76.96621491 -63.08630753 75.1858902 C-63.32236484 61.71327322 -63.32236484 61.71327322 -60.04755783 57.47039032 C-57.77693707 55.69999059 -55.51967868 54.37808275 -53 53 C-51.15145872 51.32233451 -51.15145872 51.32233451 -49.5625 49.5625 C-48.2940625 48.2940625 -48.2940625 48.2940625 -47 47 C-46.34 47 -45.68 47 -45 47 C-45 46.34 -45 45.68 -45 45 C-43.70703125 43.73046875 -43.70703125 43.73046875 -41.8125 42.1875 C-37.830232 38.81353581 -34.16097305 35.21269961 -30.5 31.5 C-27.02799155 27.98741221 -23.57128126 24.52233146 -19.8125 21.3125 C-12.82002504 15.34006896 -6.3304367 8.95524354 -1.05859375 1.3984375 C-0.53458984 0.70621094 -0.53458984 0.70621094 0 0 Z " fill="#3A5B74" transform="translate(447,201)"/>
<path d="M0 0 C4.151697 0.39920163 5.49749035 1.17769734 8.25 4.3125 C9.29284534 7.2655076 9.98392078 10.18923679 10.25 13.3125 C9.92 13.6425 9.59 13.9725 9.25 14.3125 C9.12677242 16.09153357 9.07210981 17.87536203 9.04467773 19.65844727 C9.02449585 20.81558228 9.00431396 21.97271729 8.98352051 23.16491699 C8.96704468 24.39053345 8.95056885 25.6161499 8.93359375 26.87890625 C8.91494263 27.99841675 8.8962915 29.11792725 8.8770752 30.2713623 C8.80852994 34.47249093 8.74853972 38.67375562 8.6875 42.875 C8.543125 52.259375 8.39875 61.64375 8.25 71.3125 C33.99 71.3125 59.73 71.3125 86.25 71.3125 C85.92 68.3425 85.59 65.3725 85.25 62.3125 C85.16163686 60.41910564 85.10352919 58.52381642 85.08886719 56.62841797 C85.07925964 55.61061249 85.0696521 54.59280701 85.05975342 53.54415894 C85.0533786 51.94062057 85.0533786 51.94062057 85.046875 50.3046875 C85.04117493 49.17982941 85.03547485 48.05497131 85.02960205 46.89602661 C85.02020389 44.53111702 85.01363885 42.16619463 85.00976562 39.80126953 C85.00001081 36.19150167 84.96891802 32.58229206 84.9375 28.97265625 C84.93097342 26.66667002 84.92572159 24.36067976 84.921875 22.0546875 C84.9095282 20.98161346 84.8971814 19.90853943 84.88446045 18.802948 C84.9044454 12.06714705 85.25014002 6.51924688 90.0625 1.375 C93.0444204 -0.07336134 94.9745966 -0.165163 98.25 0.3125 C100.5625 1.8125 100.5625 1.8125 102.25 4.3125 C103.58827774 11.51820094 103.28707213 18.69812791 103.12890625 26 C103.09790833 27.72766602 103.09790833 27.72766602 103.06628418 29.49023438 C102.98792934 33.76444186 102.89963412 38.03846247 102.8125 42.3125 C102.626875 51.8825 102.44125 61.4525 102.25 71.3125 C127 71.3125 151.75 71.3125 177.25 71.3125 C176.8424654 51.22326225 176.8424654 51.22326225 176.41162109 31.13452148 C176.36471748 28.60922775 176.31860306 26.08391917 176.2734375 23.55859375 C176.24161377 22.25571411 176.20979004 20.95283447 176.17700195 19.61047363 C175.97976924 7.53403074 175.97976924 7.53403074 178.25 2.3125 C181.41818756 0.20037496 183.38219252 -0.01906464 187.1171875 -0.24609375 C190.53021532 0.64779449 192.02407575 2.64452698 194.25 5.3125 C194.85127258 8.41938782 194.85127258 8.41938782 194.81762695 11.9387207 C194.81835709 12.58318649 194.81908722 13.22765228 194.81983948 13.89164734 C194.81637391 16.00806789 194.77757027 18.12224848 194.73828125 20.23828125 C194.72894924 21.71085915 194.72183496 23.18345263 194.71684265 24.65605164 C194.69780274 28.52144654 194.64872989 32.38589367 194.59332275 36.25091553 C194.54206413 40.19904765 194.51931463 44.14733377 194.49414062 48.09570312 C194.44060649 55.83506629 194.3553324 63.57365006 194.25 71.3125 C194.8364328 71.31027939 195.4228656 71.30805878 196.02706909 71.30577087 C202.2258848 71.28335127 208.42468869 71.26844353 214.62353516 71.25756836 C216.92562326 71.25259243 219.2277083 71.2458093 221.52978516 71.23706055 C235.14194246 71.18668905 248.66946899 71.33838299 262.25 72.3125 C258.25 76.3125 254.25 80.3125 250.25 84.3125 C249.52683594 85.12847656 249.52683594 85.12847656 248.7890625 85.9609375 C245.77848029 88.60474827 242.14897634 88.43595097 238.29785156 88.42602539 C236.82677948 88.42591209 236.82677948 88.42591209 235.32598877 88.42579651 C234.27481873 88.42063522 233.22364868 88.41547394 232.140625 88.41015625 C231.05867859 88.4087413 229.97673218 88.40732635 228.86199951 88.40586853 C225.4079715 88.40027318 221.95400841 88.3877215 218.5 88.375 C216.15755302 88.3699844 213.81510502 88.3654216 211.47265625 88.36132812 C205.7317487 88.35030528 199.99087899 88.33357174 194.25 88.3125 C194.23786972 89.21998993 194.23786972 89.21998993 194.22549438 90.14581299 C194.13946741 96.44003396 194.03996444 102.73393932 193.93261719 109.02783203 C193.89432334 111.37706199 193.85947121 113.72635066 193.828125 116.07568359 C193.78248373 119.45171094 193.72448701 122.82733391 193.6640625 126.203125 C193.65251129 127.25429504 193.64096008 128.30546509 193.62905884 129.38848877 C193.5992543 130.85956085 193.5992543 130.85956085 193.56884766 132.36035156 C193.55552399 133.22194885 193.54220032 134.08354614 193.5284729 134.97125244 C193.22515903 137.5213493 192.59925309 139.13808109 191.25 141.3125 C189.2265625 142.796875 189.2265625 142.796875 186.875 144.0625 C186.10414063 144.49046875 185.33328125 144.9184375 184.5390625 145.359375 C182.25 146.3125 182.25 146.3125 178.25 146.3125 C177.28796622 143.08024756 177.12875466 140.17546806 177.13647461 136.80957031 C177.13659546 135.69340332 177.13671631 134.57723633 177.13684082 133.42724609 C177.14195679 132.26016113 177.14707275 131.09307617 177.15234375 129.890625 C177.15335083 128.81345215 177.15435791 127.7362793 177.15539551 126.62646484 C177.16062499 122.60513239 177.17458626 118.58381512 177.1875 114.5625 C177.208125 105.57 177.22875 96.5775 177.25 87.3125 C152.5 87.3125 127.75 87.3125 102.25 87.3125 C102.28953865 107.11744536 102.28953865 107.11744536 102.34008789 126.92236328 C102.3430091 129.40917925 102.34555717 131.8959957 102.34765625 134.3828125 C102.35277222 135.66921631 102.35788818 136.95562012 102.36315918 138.28100586 C102.36334045 140.13761841 102.36334045 140.13761841 102.36352539 142.03173828 C102.365746 143.10207306 102.36796661 144.17240784 102.37025452 145.275177 C102.24798739 148.36333351 101.82355526 151.27840813 101.25 154.3125 C101.87679153 154.24144547 102.50358307 154.17039093 103.14936829 154.09718323 C111.00411399 153.28660135 118.77652717 153.18296184 126.66796875 153.21484375 C128.01988166 153.21671402 129.37179527 153.21813504 130.72370911 153.21913147 C134.24335679 153.22290873 137.76296172 153.23269674 141.28259277 153.24383545 C144.88956118 153.25415392 148.49653664 153.25865121 152.10351562 153.26367188 C159.152361 153.27432444 166.20117768 153.29134159 173.25 153.3125 C171.87178364 156.15870443 170.46437866 158.43082484 168.375 160.8125 C167.88257813 161.3796875 167.39015625 161.946875 166.8828125 162.53125 C166.34398437 163.1190625 165.80515625 163.706875 165.25 164.3125 C164.78416504 164.99538086 164.31833008 165.67826172 163.83837891 166.38183594 C159.66989752 169.4910937 155.27230367 168.962843 150.203125 168.984375 C149.11795593 168.9976886 148.03278687 169.0110022 146.91473389 169.02471924 C144.61835505 169.04496527 142.32185862 169.05435349 140.02539062 169.05371094 C136.52534777 169.06243681 133.03039615 169.13499774 129.53125 169.2109375 C127.29689219 169.22267893 125.06251049 169.23061431 122.828125 169.234375 C121.78827454 169.26311707 120.74842407 169.29185913 119.67706299 169.32147217 C113.86045636 169.24898554 110.77418817 168.49963816 106.52636719 164.37988281 C103.25 160.72889044 103.25 160.72889044 103.25 158.3125 C102.71761719 158.0959375 102.18523437 157.879375 101.63671875 157.65625 C98.37386658 155.81922685 95.78237006 153.3519203 93.0625 150.8125 C92.51658203 150.31363281 91.97066406 149.81476563 91.40820312 149.30078125 C86.27877886 144.55908298 85.75495406 141.13886603 85.25 134.3125 C85.12864599 130.59133797 85.13268398 126.87516053 85.15234375 123.15234375 C85.15335083 122.23747192 85.15435791 121.3226001 85.15539551 120.38000488 C85.16057812 117.00332361 85.17453887 113.62666038 85.1875 110.25 C85.208125 102.680625 85.22875 95.11125 85.25 87.3125 C59.51 87.3125 33.77 87.3125 7.25 87.3125 C7.25 97.8725 7.25 108.4325 7.25 119.3125 C4.94 120.3025 2.63 121.2925 0.25 122.3125 C-2.09528245 124.84794049 -3.83530555 127.44045832 -5.75 130.3125 C-6.41 130.3125 -7.07 130.3125 -7.75 130.3125 C-9.7304601 116.44927927 -8.75 102.31646769 -8.75 88.3125 C-34.16 88.3125 -59.57 88.3125 -85.75 88.3125 C-85.75 87.6525 -85.75 86.9925 -85.75 86.3125 C-86.36875 86.209375 -86.9875 86.10625 -87.625 86 C-89.75 85.3125 -89.75 85.3125 -91.75 82.3125 C-92.1875 78.875 -92.1875 78.875 -91.75 75.3125 C-88.96463099 72.33123987 -87.29437496 71.38679562 -83.22550964 70.83148193 C-81.85502994 70.81997274 -80.48425423 70.83032904 -79.11401367 70.85839844 C-78.36225861 70.85781433 -77.61050354 70.85723022 -76.83596802 70.85662842 C-74.36282413 70.8594047 -71.89090083 70.89047325 -69.41796875 70.921875 C-67.6987626 70.92933906 -65.97954791 70.93503121 -64.2603302 70.93902588 C-59.74411363 70.95426934 -55.22841488 70.99353977 -50.71240234 71.0378418 C-46.10065719 71.07882246 -41.48882804 71.09704285 -36.87695312 71.1171875 C-27.83440841 71.16003549 -18.79224733 71.22827103 -9.75 71.3125 C-9.74857498 70.50927811 -9.74714996 69.70605621 -9.74568176 68.87849426 C-9.72783639 61.30090917 -9.68617852 53.72400321 -9.61790943 46.14671803 C-9.58364908 42.25129848 -9.55853106 38.35627069 -9.55444336 34.46069336 C-9.55015816 30.69964798 -9.52167906 26.93948617 -9.47656822 23.17871666 C-9.46359996 21.74549193 -9.45928323 20.31216141 -9.46384621 18.87888527 C-9.46875573 16.86815561 -9.43978005 14.85743032 -9.40942383 12.84692383 C-9.40276199 11.70330887 -9.39610016 10.55969391 -9.38923645 9.38142395 C-8.56070892 5.40372839 -6.78941346 3.90926847 -3.75 1.3125 C-2.75 0.3125 -2.75 0.3125 0 0 Z " fill="#889FAD" transform="translate(182.75,39.6875)"/>
<path d="M0 0 C1.07552753 0.00060047 1.07552753 0.00060047 2.1727829 0.00121307 C6.83533392 0.00429157 11.49766515 0.02082767 16.16015625 0.046875 C17.26646896 0.0512558 18.37278168 0.0556366 19.51261902 0.06015015 C24.79270765 0.1079641 30.01492228 0.30713906 35.27832031 0.73364258 C44.50126877 1.43921554 53.73268632 1.52574523 62.97870445 1.66499138 C66.34581254 1.71612071 69.71279158 1.77271727 73.07978821 1.83070374 C82.64576347 1.99461191 92.2118655 2.15004501 101.77807617 2.29956055 C170.31978074 3.37891457 170.31978074 3.37891457 199.9140625 6.8828125 C203.58396416 7.28049803 207.19675585 7.29078956 210.88476562 7.20141602 C214.98255295 7.29840218 218.56657802 8.30749114 221.9375 10.625 C222.9375 12.25 222.9375 12.25 222.75 14.3125 C221.9375 16.25 221.9375 16.25 219.9375 18.25 C217.62182617 18.90429688 217.62182617 18.90429688 214.73046875 19.46875 C213.67456543 19.67798096 212.61866211 19.88721191 211.53076172 20.1027832 C210.40686035 20.31636475 209.28295898 20.52994629 208.125 20.75 C206.98820801 20.97067139 205.85141602 21.19134277 204.68017578 21.41870117 C182.83485425 25.6173188 182.83485425 25.6173188 174.9375 25.25 C174.9375 25.91 174.9375 26.57 174.9375 27.25 C170.79220356 27.5698718 166.64618094 27.87932313 162.5 28.1875 C161.37400391 28.27451172 160.24800781 28.36152344 159.08789062 28.45117188 C134.03569717 30.29424878 108.89081144 30.61218382 83.78533936 31.1875 C76.62125444 31.35194426 69.45724295 31.51951775 62.29324913 31.68787766 C59.62787657 31.75011526 56.96247705 31.81109007 54.29707336 31.87197876 C46.21363784 32.05904422 38.13219301 32.26491867 30.05151367 32.54833984 C7.63171275 33.32355275 -14.73701764 33.22954303 -37.1663208 32.91339111 C-40.97557968 32.8617827 -44.78491449 32.81839578 -48.59427547 32.77509499 C-52.34294146 32.73179715 -56.09154914 32.68451972 -59.84015083 32.63599777 C-61.59036682 32.61356947 -63.3405944 32.59202259 -65.09083366 32.57149124 C-75.21620551 32.44924805 -85.31206286 32.15251139 -95.42322445 31.5871067 C-101.36009868 31.25781392 -107.24347073 31.23975726 -113.1875 31.375 C-130.8878441 31.53904921 -148.52483593 29.91343872 -166.15258789 28.48431396 C-169.1241775 28.24503356 -172.09619554 28.01181661 -175.06835938 27.77978516 C-180.09681203 27.38565554 -185.12376684 26.97574175 -190.15002441 26.55456543 C-192.05718258 26.39605524 -193.96464979 26.24121061 -195.87243652 26.0904541 C-205.4047478 25.3306722 -214.76729967 24.32567447 -224.125 22.30859375 C-224.86927246 22.15109146 -225.61354492 21.99358917 -226.38037109 21.83131409 C-230.23862673 20.93537828 -233.11363621 19.93892336 -236.0625 17.25 C-235.3125 12.5 -235.3125 12.5 -233.0625 10.25 C-216.5148908 4.43361715 -197.7201478 4.81267374 -180.3984375 4.2265625 C-178.10890379 4.14438617 -175.81938378 4.06182739 -173.52987671 3.97891235 C-166.37449175 3.72328288 -159.21861451 3.4842171 -152.0625 3.25 C-150.3620327 3.19412971 -150.3620327 3.19412971 -148.62721252 3.13713074 C-131.64871152 2.58210227 -114.6687233 2.08859617 -97.6875 1.625 C-96.49925251 1.59229507 -95.31100502 1.55959015 -94.08675003 1.52589417 C-62.72467779 0.664826 -31.37509592 -0.0382651 0 0 Z " fill="#B1C3CB" transform="translate(328.0625,625.75)"/>
<path d="M0 0 C2.02552535 0.00317289 4.04960415 -0.02040793 6.07495117 -0.0456543 C16.31425227 -0.05075101 22.4784746 1.17867182 29.96362305 8.31567383 C31.95938947 11.48203291 32.21945524 13.95337138 32.23777771 17.66470337 C32.24775284 18.74959045 32.25772797 19.83447754 32.26800537 20.95223999 C32.26867004 22.13774445 32.26933472 23.3232489 32.27001953 24.54467773 C32.27834305 25.79716309 32.28666656 27.04964844 32.29524231 28.34008789 C32.31521743 31.77436563 32.32598514 35.20840081 32.33106875 38.64271593 C32.33471579 40.79164079 32.34095784 42.94054246 32.34807014 45.08945847 C32.37256641 52.59635183 32.38561558 60.10317615 32.38916016 67.61010742 C32.39278902 74.59022547 32.42263676 81.56990208 32.46456474 88.54988539 C32.49935862 94.55433411 32.51471021 100.55863729 32.51540619 106.56318605 C32.51619634 110.14403013 32.52481176 113.72442506 32.55340385 117.30516434 C32.58464406 121.30718871 32.57548176 125.30817575 32.56298828 129.31030273 C32.57782257 130.4836618 32.59265686 131.65702087 32.60794067 132.86593628 C32.51779448 143.0387409 29.17999829 151.09929859 21.96362305 158.31567383 C18.66431909 160.2952562 16.81288989 161.31567383 12.96362305 161.31567383 C12.96362305 161.97567383 12.96362305 162.63567383 12.96362305 163.31567383 C9.33890447 163.43350664 5.71468902 163.50346191 2.08862305 163.56567383 C1.07541992 163.59918945 0.0622168 163.63270508 -0.98168945 163.66723633 C-9.35742992 163.77461762 -15.87676218 162.02846607 -22.91137695 157.44067383 C-28.24386222 152.10818856 -31.27335645 146.37638998 -31.31053162 138.83293152 C-31.32050674 137.74377945 -31.33048187 136.65462738 -31.34075928 135.5324707 C-31.34142395 134.34741943 -31.34208862 133.16236816 -31.34277344 131.94140625 C-31.35109695 130.68556229 -31.35942047 129.42971832 -31.36799622 128.13581848 C-31.38989729 124.69766152 -31.39873421 121.25959348 -31.40382266 117.82137465 C-31.40747159 115.67061743 -31.41371445 113.5198833 -31.42082405 111.3691349 C-31.44530379 103.85805875 -31.45836714 96.3470515 -31.46191406 88.8359375 C-31.46554769 81.84723899 -31.49543403 74.85898008 -31.53731865 67.87041587 C-31.572071 61.86003347 -31.58746336 55.84979642 -31.5881601 49.83931428 C-31.58895127 46.25407805 -31.59761539 42.66928988 -31.62615776 39.08415794 C-31.65731028 35.08183408 -31.64825541 31.08055063 -31.63574219 27.078125 C-31.65057648 25.89914642 -31.66541077 24.72016785 -31.68069458 23.50546265 C-31.60468302 14.9603761 -29.65609152 10.03321852 -23.72387695 3.94067383 C-16.45285806 -0.4557562 -8.24598593 -0.02702945 0 0 Z " fill="#3E617B" transform="translate(224.036376953125,304.684326171875)"/>
<path d="M0 0 C0.66902344 0.47050781 1.33804687 0.94101562 2.02734375 1.42578125 C10.75916824 7.08681646 18.76454676 8.94846415 29 10 C30.07636719 10.11472656 31.15273438 10.22945313 32.26171875 10.34765625 C41.6974906 10.83897147 51.06950184 7.97192802 58.70776367 2.40112305 C59.32745529 1.95133591 59.94714691 1.50154877 60.58561707 1.03813171 C61.05236343 0.69554825 61.5191098 0.35296478 62 0 C62.09352238 18.76744076 62.1640179 37.5348341 62.20724869 56.30245972 C62.22785678 65.01698607 62.25594376 73.73136748 62.30175781 82.44580078 C62.34167937 90.04303938 62.36744556 97.64017297 62.37635398 105.23751354 C62.38155976 109.25872487 62.39375836 113.27963585 62.42292023 117.30075073 C62.45017363 121.0895882 62.45842515 124.87800306 62.45243073 128.66692924 C62.45352655 130.05361672 62.46142154 131.44031907 62.4768219 132.82692146 C62.55990879 140.69725407 62.25543846 146.28153161 58 153 C57.443125 153.886875 56.88625 154.77375 56.3125 155.6875 C48.52032981 163.47967019 39.60756859 164.18769647 29.125 164.25 C27.83529297 164.2809375 27.83529297 164.2809375 26.51953125 164.3125 C18.87393635 164.35890725 12.27459327 162.88600734 6.3828125 157.58984375 C1.08698625 151.50113955 -1.12411002 145.07807926 -1.12698364 137.13484192 C-1.12980347 135.93597855 -1.13262329 134.73711517 -1.13552856 133.50192261 C-1.13350433 132.19006989 -1.1314801 130.87821716 -1.12939453 129.52661133 C-1.13074979 128.12864639 -1.13253043 126.7306818 -1.13470459 125.3327179 C-1.13926277 121.53961125 -1.13749632 117.74653181 -1.1343255 113.95342469 C-1.13179509 109.98739692 -1.13414121 106.02137149 -1.13571167 102.05534363 C-1.13753073 95.398301 -1.13513329 88.74126946 -1.13037109 82.08422852 C-1.12492228 74.37816284 -1.12669668 66.67212359 -1.1321975 58.96605855 C-1.13672814 52.35539899 -1.13737962 45.7447474 -1.13475883 39.13408679 C-1.13319665 35.18315013 -1.13300083 31.23222592 -1.13629532 27.28129005 C-1.13917355 23.57049375 -1.13719925 19.85973172 -1.13140106 16.14893913 C-1.12943788 14.12979047 -1.13242731 12.11063893 -1.13552856 10.0914917 C-1.13129883 8.30588585 -1.13129883 8.30588585 -1.12698364 6.48420715 C-1.12660662 5.44316739 -1.12622959 4.40212763 -1.12584114 3.32954121 C-1 1 -1 1 0 0 Z " fill="#3D617B" transform="translate(290,304)"/>
<path d="M0 0 C0.84858582 -0.00807175 1.69717163 -0.01614349 2.57147217 -0.02445984 C4.37038122 -0.03830316 6.16931657 -0.04902421 7.96826172 -0.05688477 C10.70982228 -0.07406489 13.45016656 -0.11794359 16.19140625 -0.16210938 C17.94009531 -0.17223936 19.68879461 -0.1807545 21.4375 -0.1875 C22.66125336 -0.21376213 22.66125336 -0.21376213 23.909729 -0.24055481 C30.05257214 -0.21733309 33.68132462 1.4552051 38.12890625 5.87109375 C42.19181538 11.06183384 42.64684695 14.06553464 42.69311523 20.53662109 C42.70289902 21.39545898 42.7126828 22.25429688 42.72276306 23.13916016 C42.75276507 25.99249725 42.77412528 28.8457869 42.79296875 31.69921875 C42.79954058 32.67533741 42.8061124 33.65145607 42.81288338 34.65715408 C42.84551073 39.83213094 42.86994368 45.00708704 42.8894043 50.18212891 C42.90715882 54.45196897 42.94187976 58.72114131 42.99194336 62.99072266 C43.0524179 68.15432467 43.08291892 73.31731149 43.09257698 78.48125076 C43.10109338 80.44191259 43.11981626 82.40255971 43.1493206 84.36301804 C43.32605267 96.78332283 43.03618185 107.05652069 34.19578552 116.74691772 C26.31619968 124.50716083 17.85666237 124.69168904 7.34130859 124.66992188 C-1.99563404 124.46733554 -7.87641368 122.27391804 -14.390625 115.48828125 C-15.9453125 113.69140625 -15.9453125 113.69140625 -17.515625 111.23828125 C-18.01602547 110.48294853 -18.01602547 110.48294853 -18.52653503 109.71235657 C-23.09026353 101.44126208 -22.07278974 91.98191191 -22.01171875 82.828125 C-22.01187393 80.93201136 -22.01336613 79.0358974 -22.01612854 77.13978577 C-22.01750843 73.17825183 -22.00502219 69.21708174 -21.98217773 65.25561523 C-21.95377501 60.19290594 -21.95654129 55.13079967 -21.96926785 50.06804562 C-21.97624164 46.15681358 -21.96841665 42.2457195 -21.95601082 38.33450508 C-21.95151422 36.46830335 -21.95114376 34.60208672 -21.95507622 32.73588371 C-21.9580057 30.12301425 -21.94139992 27.5109595 -21.91967773 24.89819336 C-21.92417938 24.13693146 -21.92868103 23.37566956 -21.93331909 22.59133911 C-21.84863827 16.42186525 -20.69858674 10.75841331 -16.54296875 5.9609375 C-15.85332031 5.41308594 -15.16367188 4.86523438 -14.453125 4.30078125 C-13.76089844 3.73488281 -13.06867188 3.16898437 -12.35546875 2.5859375 C-8.42080772 -0.29613905 -4.7125985 0.04225061 0 0 Z " fill="#3D6079" transform="translate(116.515625,343.76171875)"/>
<path d="M0 0 C-0.50064593 4.68412561 -1.66766095 7.51764775 -4.4375 11.3125 C-5.05496094 12.17488281 -5.67242187 13.03726563 -6.30859375 13.92578125 C-8 16 -8 16 -10 17 C-15.52631246 17.21303245 -21.05099442 17.11111241 -26.58007812 17.03710938 C-29.74933119 17.00271999 -32.91790113 16.99517469 -36.08731079 16.99209595 C-38.96528272 16.98174662 -41.84251113 16.94387495 -44.72015381 16.90032959 C-46.14996136 16.88352262 -47.57992496 16.8767937 -49.00982666 16.88043213 C-61.96365066 16.89816004 -61.96365066 16.89816004 -65.91015625 13.109375 C-68 10 -68 10 -68.5625 7.375 C-67.88230354 4.50305938 -67.04197541 3.13298723 -65 1 C-62.52912903 0.48101807 -62.52912903 0.48101807 -59.55395508 0.45410156 C-58.43882034 0.43438293 -57.32368561 0.41466431 -56.17475891 0.39434814 C-54.96853378 0.39311951 -53.76230865 0.39189087 -52.51953125 0.390625 C-51.27757492 0.37408875 -50.03561859 0.35755249 -48.75602722 0.34051514 C-45.44957132 0.30010948 -42.14388692 0.27684519 -38.83728027 0.26177979 C-35.49745153 0.2423493 -32.15800774 0.19996527 -28.81835938 0.16015625 C-19.21235491 0.05285308 -9.60662537 -0.01475785 0 0 Z " fill="#95A9B3" transform="translate(161,192)"/>
<path d="M0 0 C1.35191291 0.00187027 2.70382652 0.00329129 4.05574036 0.00428772 C7.57538804 0.00806498 11.09499297 0.01785299 14.61462402 0.0289917 C18.22159243 0.03931017 21.82856789 0.04380746 25.43554688 0.04882812 C32.48439225 0.05948069 39.53320893 0.07649784 46.58203125 0.09765625 C45.20381489 2.94386068 43.79640991 5.21598109 41.70703125 7.59765625 C41.21460938 8.16484375 40.7221875 8.73203125 40.21484375 9.31640625 C39.67601562 9.90421875 39.1371875 10.49203125 38.58203125 11.09765625 C37.99238586 11.78502869 37.40274048 12.47240112 36.79522705 13.18060303 C34.12952367 15.48961485 33.01146116 15.58684241 29.53808594 15.55175781 C28.53735046 15.55145569 27.53661499 15.55115356 26.5055542 15.55084229 C25.43251038 15.53019714 24.35946655 15.509552 23.25390625 15.48828125 C22.14976379 15.48262146 21.04562134 15.47696167 19.90802002 15.47113037 C16.38224899 15.44874393 12.85749501 15.39854121 9.33203125 15.34765625 C6.94142093 15.32759428 4.55079467 15.30934299 2.16015625 15.29296875 C-3.69956562 15.24887168 -9.55869453 15.18193623 -15.41796875 15.09765625 C-15.83175781 14.19273437 -15.83175781 14.19273437 -16.25390625 13.26953125 C-17.82181688 10.34416779 -20.02287639 8.36669111 -22.41796875 6.09765625 C-22.08796875 5.10765625 -21.75796875 4.11765625 -21.41796875 3.09765625 C-22.73796875 2.43765625 -24.05796875 1.77765625 -25.41796875 1.09765625 C-16.92811487 0.13522682 -8.53843394 -0.0344958 0 0 Z " fill="#9AB1BE" transform="translate(309.41796875,192.90234375)"/>
<path d="M0 0 C4.55105999 1.92155866 8.76669055 5.53338109 11 10 C11.87295273 16.01090311 11.02318656 20.3312217 7.46484375 25.26953125 C4.39973558 28.8904457 1.93515387 30.66849035 -2.8046875 31.48046875 C-7.089484 31.76362862 -10.53267057 31.90726068 -14.26171875 29.6015625 C-18.61602553 25.42069771 -20.70681274 21.63868532 -21.375 15.625 C-20.76679141 9.74565029 -18.31910961 5.7921901 -13.875 2.0625 C-9.48903568 -0.80161032 -5.06528127 -0.78524803 0 0 Z " fill="#193246" transform="translate(598,407)"/>
<path d="M0 0 C5.30492646 1.73615775 7.75709228 4.6452382 11 9 C12.53597454 12.07194908 12.2265038 14.60244293 12 18 C9.9802292 23.42149005 7.06731666 26.22819597 2.11328125 29.08984375 C-2.57041722 31.10703736 -7.53795931 30.50609101 -12.25 28.875 C-16.04022571 26.2907552 -18.94936328 23.42454628 -20.8125 19.125 C-20.9053125 18.073125 -20.9053125 18.073125 -21 17 C-21.144375 15.741875 -21.28875 14.48375 -21.4375 13.1875 C-21.4044441 8.766273 -19.55573621 6.57769524 -16.60546875 3.4453125 C-11.51508051 -1.13727545 -6.5248189 -0.54517718 0 0 Z " fill="#152D40" transform="translate(597,172)"/>
<path d="M0 0 C4.41887281 2.33030273 7.42248323 5.1009821 10.09765625 9.31640625 C11.06639812 15.32260585 9.90343951 18.66718461 6.46484375 23.62109375 C3.43116683 27.38285313 0.44115667 29.05887873 -4.390625 29.58984375 C-12.95843632 29.89795315 -12.95843632 29.89795315 -16.40234375 27.19140625 C-20.49760585 22.48185483 -22.51624821 18.51803984 -22.25390625 12.26953125 C-21.44195598 7.7586964 -18.62664999 4.97004846 -15.33984375 2.00390625 C-10.74018028 -1.18047615 -5.28272187 -1.89830868 0 0 Z " fill="#162F45" transform="translate(598.90234375,329.68359375)"/>
<path d="M0 0 C4.45899081 2.15916432 7.17652208 5.41970002 9 10 C9.32081284 15.88156878 7.92739943 20.54187091 4 25 C-0.72352277 28.63347906 -6.07980809 28.72791758 -11.85546875 28.62890625 C-16.38669805 27.72266039 -18.18701795 25.59317817 -20.828125 21.9453125 C-23.56793011 17.39723601 -23.85265253 13.24107519 -23 8 C-17.64993999 -1.18564149 -9.7581159 -1.09446373 0 0 Z " fill="#183043" transform="translate(600,251)"/>
<path d="M0 0 C3.63124994 2.34013885 6.85328144 4.89406288 8.8125 8.8125 C9.3845241 14.64714581 8.36897461 18.2942115 4.8125 22.8125 C1.01411902 26.51592146 -2.04927417 27.09737943 -7.1875 27.25 C-11.88358515 27.06401643 -15.37165271 26.76978165 -19.1875 23.8125 C-23.00888744 18.6837958 -24.00722887 15.16539872 -23.1875 8.8125 C-18.32887645 0.10746615 -9.23992897 -3.44232648 0 0 Z " fill="#223948" transform="translate(599.1875,95.1875)"/>
<path d="M0 0 C4.26630636 2.30380543 7.56169055 4.77984903 10 9 C10.92225349 14.59569533 10.26798397 19.2670577 7 24 C3.11864552 27.63876983 -1.31738854 27.55581375 -6.40234375 27.42578125 C-10.22413199 26.7993528 -11.78142156 25.07738299 -14 22 C-16.70601292 17.94098062 -16.89191392 14.76712614 -16 10 C-12.42810203 3.18092207 -8.01107205 -0.96132865 0 0 Z " fill="#B0D4E6" transform="translate(516,83)"/>
<path d="M0 0 C4.99842336 0.07956969 7.4110839 1.46136173 10.9375 4.89453125 C13.26006223 7.60638658 14.28084237 9.22035758 14.6875 12.8125 C14.23836212 17.22902247 13.20174409 19.15455947 10.3125 22.5 C6.24223502 25.33971975 2.39210821 26.19471914 -2.5 26.0625 C-6.53227835 25.02562842 -8.54189081 21.88699737 -10.6875 18.5 C-12.15400366 15.56699268 -12.05190295 13.77962656 -11.6875 10.5 C-8.95367042 5.01193912 -6.52724806 0.23989886 0 0 Z " fill="#BAD6E5" transform="translate(319.6875,251.5)"/>
<path d="M0 0 C3.65542392 2.47050896 6.37104244 4.90382846 8.09375 9.05859375 C8.68422513 13.02321249 8.28747634 14.70573505 6.34375 18.24609375 C3.68642577 21.56774903 1.76280291 23.68286515 -2.45703125 24.6328125 C-6.60850874 24.80309941 -9.66315682 24.90440973 -13.1796875 22.51171875 C-16.17431559 19.35819203 -17.71410097 16.87153194 -18.71875 12.62109375 C-17.59464533 7.69232711 -15.24634926 3.84566493 -11.90625 0.05859375 C-7.79244627 -1.31267416 -4.03988414 -1.99510672 0 0 Z " fill="#BBD7E8" transform="translate(132.90625,251.94140625)"/>
<path d="M0 0 C3.78580423 2.03850997 7.05061257 4.10122513 9 8 C9.54192749 12.79992915 9.51086458 14.99719176 7.3125 19.3125 C4.20521932 22.92366404 1.87376289 24.62524742 -2.8125 25.5625 C-7.47261573 24.74012664 -10.56851713 22.17644022 -14 19 C-16.50304378 15.24543433 -16.45280074 13.45254066 -16 9 C-12.32317126 1.9187002 -8.0382172 -0.98714948 0 0 Z " fill="#AAD0E8" transform="translate(224,185)"/>
<path d="M0 0 C0.99 0.495 0.99 0.495 2 1 C3.35773468 8.05324852 3.11020533 15.1721788 3.0534668 22.32910156 C3.0465857 23.66367384 3.04013805 24.99824841 3.03408813 26.33282471 C3.01627253 29.93585398 2.99170448 33.53880613 2.96532798 37.14178181 C2.94375035 40.15401255 2.92513749 43.16625902 2.90639621 46.17850852 C2.86200214 53.28213235 2.81172474 60.38569852 2.75805664 67.48925781 C2.70284237 74.81471548 2.65889083 82.1401823 2.62020558 89.46574426 C2.5864764 95.76406076 2.54515899 102.06229749 2.49788028 108.3605268 C2.46978535 112.11866153 2.44472019 115.87675605 2.4272213 119.63495636 C2.40740816 123.81959512 2.37181691 128.00395538 2.3347168 132.18847656 C2.33098557 133.43322754 2.32725433 134.67797852 2.32341003 135.96044922 C2.31080139 137.09871155 2.29819275 138.23697388 2.28520203 139.409729 C2.27837245 140.39856205 2.27154287 141.3873951 2.26450634 142.40619278 C2 145 2 145 0 149 C0 99.83 0 50.66 0 0 Z " fill="#CBDFEB" transform="translate(352,302)"/>
<path d="M0 0 C0.33 0 0.66 0 1 0 C1 9.24 1 18.48 1 28 C0.67 28 0.34 28 0 28 C-0.495 18.595 -0.495 18.595 -1 9 C-2.464375 10.340625 -3.92875 11.68125 -5.4375 13.0625 C-10.12065834 17.28469126 -14.96014602 21.21402274 -20 25 C-20 22 -20 22 -18.81005859 20.5012207 C-18.26172363 19.98132568 -17.71338867 19.46143066 -17.1484375 18.92578125 C-16.54668701 18.34393066 -15.94493652 17.76208008 -15.32495117 17.16259766 C-14.68146729 16.55206543 -14.0379834 15.9415332 -13.375 15.3125 C-8.39177419 10.47978897 -3.99150238 5.70214626 0 0 Z " fill="#395C6B" transform="translate(447,201)"/>
<path d="M0 0 C-3.10451884 1.89631692 -6.06338957 2.39142642 -9.63549805 2.88598633 C-17.58313591 4.01926571 -22.67049543 5.65856419 -28 12 C-28.49886719 12.54398438 -28.99773437 13.08796875 -29.51171875 13.6484375 C-31.80082583 16.23270165 -33.6531029 18.81642503 -35 22 C-35.66 22 -36.32 22 -37 22 C-36.57861975 15.25791608 -31.36914368 10.06168752 -26.625 5.6875 C-18.39292339 -0.85183358 -9.9771538 -0.35075931 0 0 Z " fill="#283B46" transform="translate(135,234)"/>
<path d="M0 0 C20.46 0.33 40.92 0.66 62 1 C62 1.33 62 1.66 62 2 C60.89459618 2.0154612 60.89459618 2.0154612 59.76686096 2.03123474 C52.83578924 2.12904643 45.90480098 2.23153716 38.97387791 2.33933926 C35.41027032 2.39460027 31.84665457 2.44802518 28.28295898 2.49731445 C24.18984755 2.55400532 20.0968939 2.61857318 16.00390625 2.68359375 C14.07581871 2.70866249 14.07581871 2.70866249 12.10877991 2.73423767 C10.92763107 2.75418289 9.74648224 2.77412811 8.52954102 2.79467773 C7.48363297 2.81022202 6.43772491 2.8257663 5.36012268 2.84178162 C3.04359303 2.73699824 3.04359303 2.73699824 2 4 C1.84259395 5.70563778 1.74906608 7.41727244 1.68359375 9.12890625 C1.64169922 10.16337891 1.59980469 11.19785156 1.55664062 12.26367188 C1.51732422 13.35228516 1.47800781 14.44089844 1.4375 15.5625 C1.39431641 16.65498047 1.35113281 17.74746094 1.30664062 18.87304688 C1.20017932 21.58189564 1.09816484 24.29083992 1 27 C0.67 27 0.34 27 0 27 C0 18.09 0 9.18 0 0 Z " fill="#E9F4F7" transform="translate(332,533)"/>
<path d="M0 0 C0 3 0 3 -1.48059082 4.84135437 C-2.17342163 5.52752335 -2.86625244 6.21369232 -3.58007812 6.9206543 C-4.75129211 8.0915284 -4.75129211 8.0915284 -5.94616699 9.28605652 C-6.79924438 10.12365005 -7.65232178 10.96124359 -8.53125 11.82421875 C-9.39689575 12.68561966 -10.2625415 13.54702057 -11.15441895 14.43452454 C-13.92934053 17.19261165 -16.71449623 19.94010457 -19.5 22.6875 C-21.37958798 24.5520474 -23.25850326 26.41727319 -25.13671875 28.28320312 C-29.7500265 32.86337826 -34.37178623 37.43489043 -39 42 C-39.495 40.515 -39.495 40.515 -40 39 C-39.55269531 38.62488281 -39.10539062 38.24976563 -38.64453125 37.86328125 C-33.78490061 33.74969199 -29.25658682 29.53634403 -25.1875 24.625 C-23.10314724 22.16262861 -20.96142294 20.02104991 -18.5 17.9375 C-11.94545436 12.38149843 -6.03256511 6.10881944 0 0 Z " fill="#D5E1EB" transform="translate(473,148)"/>
<path d="M0 0 C0.99 0 1.98 0 3 0 C3 1.32 3 2.64 3 4 C9.93 4.33 16.86 4.66 24 5 C23.34 6.32 22.68 7.64 22 9 C15.39221062 10.68198275 9.56970739 9.46127683 3 8 C2.87625 6.865625 2.7525 5.73125 2.625 4.5625 C2.41875 3.386875 2.2125 2.21125 2 1 C1.34 0.67 0.68 0.34 0 0 Z " fill="#9AA9B4" transform="translate(26,533)"/>
<path d="M0 0 C0.33 0 0.66 0 1 0 C1.77699068 8.91059523 2.25897236 17.81398985 2.60717773 26.75073242 C2.82364315 31.88107014 2.82364315 31.88107014 3.65625 36.9375 C4 39 4 39 2 42 C1.34 42 0.68 42 0 42 C0 28.14 0 14.28 0 0 Z " fill="#758D9A" transform="translate(175,128)"/>
<path d="M0 0 C21.78 0.495 21.78 0.495 44 1 C44 1.33 44 1.66 44 2 C30.14 2 16.28 2 2 2 C1.67 2.99 1.34 3.98 1 5 C0.67 5 0.34 5 0 5 C0 3.35 0 1.7 0 0 Z " fill="#E3EFF4" transform="translate(56,533)"/>
<path d="M0 0 C1.03253906 0.01353516 1.03253906 0.01353516 2.0859375 0.02734375 C3.76577838 0.05067487 5.44543746 0.08653674 7.125 0.125 C4.33847094 1.65043191 1.9304238 2.48414769 -1.203125 2.9765625 C-2.00234375 3.10546875 -2.8015625 3.234375 -3.625 3.3671875 C-4.45 3.49351562 -5.275 3.61984375 -6.125 3.75 C-6.96546875 3.8840625 -7.8059375 4.018125 -8.671875 4.15625 C-10.73865501 4.48505591 -12.80671161 4.80581969 -14.875 5.125 C-14.545 4.135 -14.215 3.145 -13.875 2.125 C-9.29395109 0.02245171 -4.95168002 -0.12475163 0 0 Z " fill="#3E525E" transform="translate(127.875,233.875)"/>
<path d="M0 0 C4.62 0 9.24 0 14 0 C14 0.33 14 0.66 14 1 C13.21753906 1.04898438 12.43507812 1.09796875 11.62890625 1.1484375 C10.61699219 1.22320312 9.60507813 1.29796875 8.5625 1.375 C7.55316406 1.44460937 6.54382813 1.51421875 5.50390625 1.5859375 C4.26447266 1.79089844 4.26447266 1.79089844 3 2 C1.68638302 4.62723396 1.78746091 6.72610561 1.68359375 9.6640625 C1.64169922 10.78554687 1.59980469 11.90703125 1.55664062 13.0625 C1.51732422 14.238125 1.47800781 15.41375 1.4375 16.625 C1.39431641 17.80835938 1.35113281 18.99171875 1.30664062 20.2109375 C1.20032574 23.14050328 1.09829358 26.07015588 1 29 C0.67 29 0.34 29 0 29 C0 19.43 0 9.86 0 0 Z " fill="#E8F3F9" transform="translate(191,128)"/>
<path d="M0 0 C0.99 0.33 1.98 0.66 3 1 C-0.67832017 5.52615993 -4.41086363 9.39424999 -9 13 C-9.66 12.34 -10.32 11.68 -11 11 C-7.33333333 7.33333333 -3.66666667 3.66666667 0 0 Z " fill="#273F49" transform="translate(459,131)"/>
<path d="M0 0 C2.19798983 0.98530579 3.82052548 1.81304737 5.5 3.5625 C7.27460185 5.26316011 8.61006256 5.58794182 11 6 C11 6.66 11 7.32 11 8 C11.66 8 12.32 8 13 8 C13.96070434 10.88211302 14.10581883 12.69850044 14.0625 15.6875 C14.05347656 16.49574219 14.04445313 17.30398438 14.03515625 18.13671875 C14.02355469 18.75160156 14.01195312 19.36648438 14 20 C12 18 12 18 11.72265625 14.7109375 C10.80194577 9.98296478 9.09655996 8.66253381 5.4375 5.625 C3.61522015 4.09401395 1.80462446 2.55191757 0 1 C0 0.67 0 0.34 0 0 Z " fill="#222F3E" transform="translate(277,253)"/>
<path d="M0 0 C-1.28519565 2.86697492 -2.57129254 4.97607712 -5 7 C-5.66 7 -6.32 7 -7 7 C-7 7.66 -7 8.32 -7 9 C-8.64453125 10.7265625 -8.64453125 10.7265625 -10.8125 12.625 C-11.52019531 13.25664062 -12.22789062 13.88828125 -12.95703125 14.5390625 C-15 16 -15 16 -18 16 C-17.2575 15.278125 -16.515 14.55625 -15.75 13.8125 C-13.04139481 11.15316684 -13.04139481 11.15316684 -11.125 8.5625 C-4.02439024 0 -4.02439024 0 0 0 Z " fill="#D8EAED" transform="translate(409,239)"/>
<path d="M0 0 C-3.66666667 3.66666667 -7.33333333 7.33333333 -11 11 C-10.51136364 4.64772727 -10.51136364 4.64772727 -8.125 1.625 C-5.02884042 -0.74265145 -3.75261318 -1.25087106 0 0 Z " fill="#182831" transform="translate(26,508)"/>
<path d="M0 0 C0.33 0 0.66 0 1 0 C1 9.24 1 18.48 1 28 C0.67 28 0.34 28 0 28 C-0.33 21.4 -0.66 14.8 -1 8 C-1.66 8 -2.32 8 -3 8 C-2.45276317 4.62537285 -1.9451 2.91765 0 0 Z " fill="#1C3F56" transform="translate(447,201)"/>
<path d="M0 0 C3.625 1.5 3.625 1.5 6 3 C5.34 3.66 4.68 4.32 4 5 C3.34 4.67 2.68 4.34 2 4 C-3.57877391 2.1404087 -8.69487426 2.34743713 -14 5 C-14 4.01 -14 3.02 -14 2 C-9.43794641 -0.6384227 -5.15064928 -0.55879686 0 0 Z " fill="#D9EAF1" transform="translate(597,92)"/>
<path d="M0 0 C0 3 0 3 -1.25 4.578125 C-1.8275 5.12984375 -2.405 5.6815625 -3 6.25 C-3.63035156 6.85457031 -4.26070313 7.45914063 -4.91015625 8.08203125 C-8.21889782 11.11865202 -11.58592026 14.08251368 -15 17 C-15.66 16.67 -16.32 16.34 -17 16 C-15.10730953 14.08014172 -13.21100983 12.16408963 -11.3125 10.25 C-10.51682617 9.44175781 -10.51682617 9.44175781 -9.70507812 8.6171875 C-6.62068501 5.51387173 -3.48423727 2.66327598 0 0 Z " fill="#3C5562" transform="translate(359,225)"/>
<path d="M0 0 C-0.33 0.66 -0.66 1.32 -1 2 C-3.39282343 2.42963413 -5.71233533 2.75136662 -8.125 3 C-13.32530646 3.57666765 -18.02617079 4.44971557 -23 6 C-23 5.34 -23 4.68 -23 4 C-19.54523874 1.69682583 -16.63517956 1.34724122 -12.625 0.875 C-11.31789063 0.70742188 -10.01078125 0.53984375 -8.6640625 0.3671875 C-5.73347366 0.07350376 -2.93885395 -0.07942849 0 0 Z " fill="#E3F0F5" transform="translate(520,63)"/>
<path d="M0 0 C0.66 0.33 1.32 0.66 2 1 C-2.69834783 5.91801085 -7.33507533 10.22338356 -13 14 C-13.33 13.34 -13.66 12.68 -14 12 C-13 10 -13 10 -10 9 C-9.154375 8.154375 -8.30875 7.30875 -7.4375 6.4375 C-6.633125 5.633125 -5.82875 4.82875 -5 4 C-4.34 4 -3.68 4 -3 4 C-3 3.34 -3 2.68 -3 2 C-2.01 1.34 -1.02 0.68 0 0 Z " fill="#E5EFF2" transform="translate(403,181)"/>
<path d="M0 0 C0.66 0.33 1.32 0.66 2 1 C-2.95 5.95 -7.9 10.9 -13 16 C-13.99 15.67 -14.98 15.34 -16 15 C-15.01 14.34 -14.02 13.68 -13 13 C-12.67 12.01 -12.34 11.02 -12 10 C-10.948125 9.38125 -10.948125 9.38125 -9.875 8.75 C-5.99373726 6.38749224 -3.115839 3.27746754 0 0 Z " fill="#E4F2F6" transform="translate(380,202)"/>
<path d="M0 0 C0.33 0.99 0.66 1.98 1 3 C-3.95 7.95 -8.9 12.9 -14 18 C-14.33 17.01 -14.66 16.02 -15 15 C-14.55269531 14.62488281 -14.10539062 14.24976563 -13.64453125 13.86328125 C-8.63317386 9.62125804 -3.80180667 5.40256737 0 0 Z " fill="#CEDBE5" transform="translate(448,172)"/>
<path d="M0 0 C-1.07564328 2.83578683 -1.77612411 3.86797063 -4.4375 5.4375 C-7.40624878 7.24771267 -8.25441319 9.06424036 -10 12 C-10.99 12 -11.98 12 -13 12 C-4.26213592 0 -4.26213592 0 0 0 Z " fill="#E4EEF5" transform="translate(391,229)"/>
<path d="M0 0 C1.65 0 3.3 0 5 0 C4.39305845 3.15330554 3.3583335 5.18888867 1.4375 7.75 C0.75494141 8.67039063 0.75494141 8.67039063 0.05859375 9.609375 C-0.29074219 10.06828125 -0.64007813 10.5271875 -1 11 C-2.31625194 8.36749612 -1.74813658 7.19820944 -1.0625 4.375 C-0.86785156 3.55773437 -0.67320312 2.74046875 -0.47265625 1.8984375 C-0.23869141 0.95871094 -0.23869141 0.95871094 0 0 Z " fill="#BECDD4" transform="translate(387,158)"/>
<path d="M0 0 C2.77867692 2.77867692 2.65193902 5.1713292 3 9 C2.67 9.33 2.34 9.66 2 10 C1.76298761 12.85877909 1.57780818 15.69883297 1.4375 18.5625 C1.39431641 19.36880859 1.35113281 20.17511719 1.30664062 21.00585938 C1.20024738 23.00368805 1.09959112 25.0018207 1 27 C0.67 27 0.34 27 0 27 C0 18.09 0 9.18 0 0 Z " fill="#9CB0B6" transform="translate(190,44)"/>
<path d="M0 0 C1.56050106 3.12100211 0.64444682 6.21466517 0.1875 9.5625 C0.10435547 10.26052734 0.02121094 10.95855469 -0.06445312 11.67773438 C-0.30172397 13.46332741 -0.64353177 15.23433573 -1 17 C-1.66 17.33 -2.32 17.66 -3 18 C-3.55353075 5.33029613 -3.55353075 5.33029613 0 0 Z " fill="#0A1C31" transform="translate(484,84)"/>
<path d="M0 0 C1.8871875 0.0309375 1.8871875 0.0309375 3.8125 0.0625 C3.8125 0.3925 3.8125 0.7225 3.8125 1.0625 C1.5025 1.0625 -0.8075 1.0625 -3.1875 1.0625 C-3.1875 1.7225 -3.1875 2.3825 -3.1875 3.0625 C-4.47400706 3.75960731 -5.76690665 4.44492876 -7.0625 5.125 C-8.14144531 5.69927734 -8.14144531 5.69927734 -9.2421875 6.28515625 C-9.88414062 6.54167969 -10.52609375 6.79820312 -11.1875 7.0625 C-11.8475 6.7325 -12.5075 6.4025 -13.1875 6.0625 C-8.76546191 2.23006699 -6.07266554 -0.09955189 0 0 Z " fill="#3E4F59" transform="translate(593.1875,328.9375)"/>
<path d="M0 0 C3.2578125 -0.29296875 3.2578125 -0.29296875 7.125 -0.1875 C9.04699219 -0.14689453 9.04699219 -0.14689453 11.0078125 -0.10546875 C11.99523437 -0.07066406 12.98265625 -0.03585938 14 0 C13.01 1.485 13.01 1.485 12 3 C11.40832031 2.91621094 10.81664062 2.83242187 10.20703125 2.74609375 C5.90060543 2.19110576 2.24447356 1.76773348 -2 3 C-1.34 2.01 -0.68 1.02 0 0 Z " fill="#0D232D" transform="translate(585,252)"/>
<path d="M0 0 C0.66 0.66 1.32 1.32 2 2 C1.64644564 4.26274788 1.02455574 5.95088852 0 8 C-2.97 7.505 -2.97 7.505 -6 7 C-4.02 4.69 -2.04 2.38 0 0 Z " fill="#D0DCE2" transform="translate(394,151)"/>
<path d="M0 0 C0.66 0.33 1.32 0.66 2 1 C0.30363829 3.10407096 -0.54981464 3.93240678 -3.26831055 4.34057617 C-4.13238525 4.32486572 -4.99645996 4.30915527 -5.88671875 4.29296875 C-6.82451172 4.28330078 -7.76230469 4.27363281 -8.72851562 4.26367188 C-9.70498047 4.23853516 -10.68144531 4.21339844 -11.6875 4.1875 C-12.67556641 4.17396484 -13.66363281 4.16042969 -14.68164062 4.14648438 C-17.12164231 4.11112203 -19.56054719 4.06177033 -22 4 C-22 3.67 -22 3.34 -22 3 C-15.73 3 -9.46 3 -3 3 C-3 2.34 -3 1.68 -3 1 C-2.01 0.67 -1.02 0.34 0 0 Z " fill="#B5D0D9" transform="translate(240,465)"/>
<path d="M0 0 C0.66 0.33 1.32 0.66 2 1 C1.29875 1.66 0.5975 2.32 -0.125 3 C-3.02918771 5.87109156 -5.32944617 9.0876791 -7.66796875 12.42578125 C-8.10753906 12.94527344 -8.54710937 13.46476563 -9 14 C-9.66 14 -10.32 14 -11 14 C-11 12 -11 12 -9.4375 10.375 C-8.633125 9.59125 -7.82875 8.8075 -7 8 C-4.63715791 5.35887886 -2.31694922 2.68141314 0 0 Z " fill="#E3F1F4" transform="translate(355,195)"/>
<path d="M0 0 C1.65 0 3.3 0 5 0 C4.01 1.485 4.01 1.485 3 3 C2.62152955 5.0179789 2.62152955 5.0179789 2.5 7.125 C2.335 8.40375 2.17 9.6825 2 11 C1.01 11.495 1.01 11.495 0 12 C0 8.04 0 4.08 0 0 Z " fill="#E9F3FD" transform="translate(353,261)"/>
<path d="M0 0 C0 0.66 0 1.32 0 2 C-1.64556566 3.03435556 -3.3170608 4.02763513 -5 5 C-6.68477344 6.31037934 -8.35648543 7.63823078 -10 9 C-9.35875684 3.22881158 -5.59674318 0 0 0 Z " fill="#84959E" transform="translate(184,40)"/>
<path d="M0 0 C0.99 0 1.98 0 3 0 C1.61811547 3.21043882 0.07578097 5.04936365 -2.625 7.25 C-3.57246094 8.03117188 -3.57246094 8.03117188 -4.5390625 8.828125 C-5.02117187 9.21484375 -5.50328125 9.6015625 -6 10 C-5.11511124 5.47723524 -3.15659424 3.30690825 0 0 Z " fill="#D1DFE2" transform="translate(433,152)"/>
<path d="M0 0 C0.99 0 1.98 0 3 0 C3.05391993 1.79133978 3.09275571 3.58313899 3.125 5.375 C3.14820313 6.37273437 3.17140625 7.37046875 3.1953125 8.3984375 C3 11 3 11 1 13 C1 9.37 1 5.74 1 2 C0.34 1.67 -0.32 1.34 -1 1 C-0.67 0.67 -0.34 0.34 0 0 Z " fill="#E0EAF1" transform="translate(171,128)"/>
<path d="M0 0 C2.31 0 4.62 0 7 0 C6.36578125 0.23460937 5.7315625 0.46921875 5.078125 0.7109375 C2.81749261 1.82290908 2.81749261 1.82290908 2.171875 4.1640625 C2.03265625 4.97617188 1.8934375 5.78828125 1.75 6.625 C1.60046875 7.44226563 1.4509375 8.25953125 1.296875 9.1015625 C1.19890625 9.72804687 1.1009375 10.35453125 1 11 C0.67 11 0.34 11 0 11 C0 7.37 0 3.74 0 0 Z " fill="#ECF6FA" transform="translate(285,128)"/>
<path d="M0 0 C0.33 0 0.66 0 1 0 C1.64165788 5.26159459 0.20577001 7.68592849 -2.90625 11.6796875 C-3.2671875 12.11539062 -3.628125 12.55109375 -4 13 C-4.66 12.67 -5.32 12.34 -6 12 C-4.02 8.04 -2.04 4.08 0 0 Z " fill="#C9DCE9" transform="translate(158,446)"/>
<path d="M0 0 C-0.33 1.32 -0.66 2.64 -1 4 C-3.64 4.66 -6.28 5.32 -9 6 C-4.38461538 0 -4.38461538 0 0 0 Z " fill="#2A485F" transform="translate(387,201)"/>
<path d="M0 0 C0 0.66 0 1.32 0 2 C-1.918125 2.4640625 -1.918125 2.4640625 -3.875 2.9375 C-6.10101675 3.47605244 -7.94739999 3.9737 -10 5 C-10.66 4.34 -11.32 3.68 -12 3 C-7.89542386 0.01485372 -5.02254631 -0.2954439 0 0 Z " fill="#A5C0D2" transform="translate(224,185)"/>
<path d="M0 0 C0.99 0.33 1.98 0.66 3 1 C0.36 3.64 -2.28 6.28 -5 9 C-5.66 8.34 -6.32 7.68 -7 7 C-4.69 4.69 -2.38 2.38 0 0 Z " fill="#CDDDE2" transform="translate(466,122)"/>
<path d="M0 0 C0.66 0.33 1.32 0.66 2 1 C0.6875 3.9375 0.6875 3.9375 -1 7 C-1.99 7.33 -2.98 7.66 -4 8 C-4.73323796 10.01508358 -4.73323796 10.01508358 -5 12 C-4.58525633 6.71201818 -3.64775386 3.88309282 0 0 Z " fill="#DCE8F6" transform="translate(545,108)"/>
<path d="M0 0 C0.5625 1.9375 0.5625 1.9375 1 4 C0.67 4.33 0.34 4.66 0 5 C-0.36760731 7.32817964 -0.70241581 9.6618385 -1 12 C-1.66 12 -2.32 12 -3 12 C-3.2954439 6.97745369 -2.98514628 4.10457614 0 0 Z " fill="#A8C0D0" transform="translate(211,189)"/>
<path d="M0 0 C0.33 0 0.66 0 1 0 C1 3.96 1 7.92 1 12 C-2 9 -2 9 -2.1875 5.3125 C-2.125625 4.219375 -2.06375 3.12625 -2 2 C-1.34 2 -0.68 2 0 2 C0 1.34 0 0.68 0 0 Z " fill="#BED3E3" transform="translate(502,93)"/>
<path d="M0 0 C0.66 0.33 1.32 0.66 2 1 C1.25 3.4375 1.25 3.4375 0 6 C-2.0625 6.625 -2.0625 6.625 -4 7 C-4.33 7.99 -4.66 8.98 -5 10 C-4.49701212 5.59885603 -2.91227269 3.28804981 0 0 Z " fill="#314351" transform="translate(34,49)"/>
<path d="M0 0 C0.99 0.33 1.98 0.66 3 1 C1.88671875 2.48828125 1.88671875 2.48828125 0 4 C-2.91796875 4.29296875 -2.91796875 4.29296875 -6.1875 4.1875 C-7.27417969 4.16042969 -8.36085938 4.13335937 -9.48046875 4.10546875 C-10.31191406 4.07066406 -11.14335938 4.03585937 -12 4 C-12 3.67 -12 3.34 -12 3 C-11.38511719 2.95101563 -10.77023437 2.90203125 -10.13671875 2.8515625 C-9.32847656 2.77679688 -8.52023437 2.70203125 -7.6875 2.625 C-6.88699219 2.55539062 -6.08648438 2.48578125 -5.26171875 2.4140625 C-2.72775559 2.10435574 -2.72775559 2.10435574 0 0 Z " fill="#B8C7D4" transform="translate(601,435)"/>
<path d="M0 0 C0.66 0 1.32 0 2 0 C7 5.47619048 7 5.47619048 7 8 C7.66 8.33 8.32 8.66 9 9 C6.66471585 8.82701599 5.30822418 8.29774631 3.62109375 6.66796875 C0 2.42788462 0 2.42788462 0 0 Z " fill="#162234" transform="translate(294,280)"/>
<path d="M0 0 C0 0.66 0 1.32 0 2 C-3.90028225 4.60018816 -7.47434569 4.15085514 -12 4 C-9.82844492 1.82844492 -8.90426105 1.54767811 -6 0.875 C-5.29875 0.70742187 -4.5975 0.53984375 -3.875 0.3671875 C-2 0 -2 0 0 0 Z " fill="#C7E8F2" transform="translate(522,106)"/>
<path d="M0 0 C0.99 0 1.98 0 3 0 C1.73058503 3.91402949 0.48832306 5.79072873 -3 8 C-2.45276317 4.62537285 -1.9451 2.91765 0 0 Z " fill="#D7E5F3" transform="translate(544,449)"/>
<path d="M0 0 C0.99 0.33 1.98 0.66 3 1 C0.69 3.31 -1.62 5.62 -4 8 C-4.33 7.01 -4.66 6.02 -5 5 C-3.35 3.35 -1.7 1.7 0 0 Z " fill="#19313E" transform="translate(477,114)"/>
<path d="M0 0 C-1.47692308 4.67692308 -1.47692308 4.67692308 -4.125 6.3125 C-5.053125 6.6528125 -5.053125 6.6528125 -6 7 C-5.37162381 3.35541809 -4.14650034 0 0 0 Z " fill="#18313D" transform="translate(492,75)"/>
<path d="M0 0 C1.21693876 2.43387753 1.31959896 4.41838846 1.5625 7.125 C1.64628906 8.03507813 1.73007812 8.94515625 1.81640625 9.8828125 C1.87699219 10.58148437 1.93757813 11.28015625 2 12 C1.34 12 0.68 12 0 12 C-1.29449495 8.11651516 -1.13203312 5.09302664 -1 1 C-0.67 0.67 -0.34 0.34 0 0 Z " fill="#313B45" transform="translate(15,513)"/>
<path d="M0 0 C0.66 0.33 1.32 0.66 2 1 C-0.64 3.64 -3.28 6.28 -6 9 C-6.66 8.34 -7.32 7.68 -8 7 C-5.36 4.69 -2.72 2.38 0 0 Z " fill="#E2F4F6" transform="translate(399,247)"/>
<path d="M0 0 C0.33 0.99 0.66 1.98 1 3 C1.66 3.33 2.32 3.66 3 4 C-0.75 7 -0.75 7 -3 7 C-2.38722388 4.03824877 -1.74627478 2.61941217 0 0 Z " fill="#335562" transform="translate(443,206)"/>
<path d="M0 0 C0.99 0 1.98 0 3 0 C1.60667426 3.36720387 0.0210714 4.9859524 -3 7 C-3 3.47190093 -2.35723489 2.53184488 0 0 Z " fill="#253C45" transform="translate(181,209)"/>
<path d="M0 0 C0.66 0.33 1.32 0.66 2 1 C0.35 2.98 -1.3 4.96 -3 7 C-3.99 6.34 -4.98 5.68 -6 5 C-4.02 3.35 -2.04 1.7 0 0 Z " fill="#293D47" transform="translate(202,173)"/>
<path d="M0 0 C2.4750171 1.11431765 4.67883419 2.58150978 7 4 C7 4.99 7 5.98 7 7 C0.25 3.25 0.25 3.25 -2 1 C-1.34 0.67 -0.68 0.34 0 0 Z " fill="#CFD7E7" transform="translate(599,171)"/>
<path d="M0 0 C0.33 0.66 0.66 1.32 1 2 C1.515625 1.79375 2.03125 1.5875 2.5625 1.375 C6.03265671 0.84112974 8.70635791 1.92323239 12 3 C12 3.33 12 3.66 12 4 C8.37 4 4.74 4 1 4 C0.67 2.68 0.34 1.36 0 0 Z " fill="#CBD5DA" transform="translate(285,54)"/>
<path d="M0 0 C-1.15173355 2.46800047 -2.04783565 4.04783565 -4 6 C-4.99 5.67 -5.98 5.34 -7 5 C-2.25 0 -2.25 0 0 0 Z " fill="#D9EBF2" transform="translate(347,460)"/>
<path d="M0 0 C2.08954032 4.17908064 2.16552619 4.80410573 1 9 C0.01 9.33 -0.98 9.66 -2 10 C-1.34 6.7 -0.68 3.4 0 0 Z " fill="#CBDBE8" transform="translate(609,420)"/>
<path d="M0 0 C2.64752004 2.57784846 4.94432065 4.91648098 7 8 C4.24542282 7.62005832 3.17979426 7.1926367 1.25 5.125 C0 3 0 3 0 0 Z " fill="#192535" transform="translate(102,280)"/>
<path d="M0 0 C1.32 0.33 2.64 0.66 4 1 C1.69 2.65 -0.62 4.3 -3 6 C-3.66 5.67 -4.32 5.34 -5 5 C-2.75 2.4375 -2.75 2.4375 0 0 Z " fill="#304552" transform="translate(305,238)"/>
<path d="M0 0 C-1.39332574 3.36720387 -2.9789286 4.9859524 -6 7 C-6.33 6.01 -6.66 5.02 -7 4 C-2.25 0 -2.25 0 0 0 Z " fill="#D1E0E4" transform="translate(361,222)"/>
<path d="M0 0 C0.33 0.99 0.66 1.98 1 3 C-1.3125 5.0625 -1.3125 5.0625 -4 7 C-4.99 6.67 -5.98 6.34 -7 6 C-4.69 4.02 -2.38 2.04 0 0 Z " fill="#304853" transform="translate(419,169)"/>
<path d="M0 0 C-1.23789629 3.71368887 -2.85224877 4.77354181 -6 7 C-6.66 7 -7.32 7 -8 7 C-8 5 -8 5 -5.6875 2.375 C-3 0 -3 0 0 0 Z " fill="#E3EBEE" transform="translate(416,171)"/>
<path d="M0 0 C3.3 0.99 6.6 1.98 10 3 C10 3.33 10 3.66 10 4 C7.69 4 5.38 4 3 4 C3 3.34 3 2.68 3 2 C2.01 2 1.02 2 0 2 C0 1.34 0 0.68 0 0 Z " fill="#C2D6E2" transform="translate(395,463)"/>
<path d="M0 0 C1.32 0.33 2.64 0.66 4 1 C2.35 2.98 0.7 4.96 -1 7 C-2 4 -2 4 -1.0625 1.8125 C-0.5365625 0.9153125 -0.5365625 0.9153125 0 0 Z " fill="#344C66" transform="translate(150,281)"/>
<path d="M0 0 C0.33 0.66 0.66 1.32 1 2 C0.21654285 3.17219543 -0.57702836 4.33763668 -1.375 5.5 C-1.81585938 6.1496875 -2.25671875 6.799375 -2.7109375 7.46875 C-3.13632812 7.9740625 -3.56171875 8.479375 -4 9 C-4.66 9 -5.32 9 -6 9 C-4.47291037 5.56404834 -2.40072955 2.88087546 0 0 Z " fill="#E7F1F3" transform="translate(446,200)"/>
<path d="M0 0 C4.75 0.75 4.75 0.75 7 3 C6.67 3.99 6.34 4.98 6 6 C3.97945196 4.35830472 1.97956942 2.69088222 0 1 C0 0.67 0 0.34 0 0 Z " fill="#BCCBD8" transform="translate(600,330)"/>
<path d="M0 0 C0.99 0.33 1.98 0.66 3 1 C1.35 2.65 -0.3 4.3 -2 6 C-2.66 5.67 -3.32 5.34 -4 5 C-2.68 3.35 -1.36 1.7 0 0 Z " fill="#C5D5E0" transform="translate(347,280)"/>
<path d="M0 0 C0.93065133 2.60582371 1.14917407 3.64198224 0.0625 6.25 C-0.4634375 7.11625 -0.4634375 7.11625 -1 8 C-1.66 8 -2.32 8 -3 8 C-2.45276317 4.62537285 -1.9451 2.91765 0 0 Z " fill="#394952" transform="translate(101,248)"/>
<path d="M0 0 C0.66 0.33 1.32 0.66 2 1 C0.68 3.31 -0.64 5.62 -2 8 C-2.66 7.01 -3.32 6.02 -4 5 C-2.68 3.35 -1.36 1.7 0 0 Z " fill="#182B35" transform="translate(196,179)"/>
</svg>
